<svg width="20" height="20" viewBox="0 0 20 20" fill="none" xmlns="http://www.w3.org/2000/svg">
<path d="M17.5 4.98307C14.725 4.70807 11.9333 4.56641 9.15 4.56641C7.5 4.56641 5.85 4.64974 4.2 4.81641L2.5 4.98307" stroke="#ACACAC" stroke-width="1.25" stroke-linecap="round" stroke-linejoin="round"/>
<path d="M7.08398 4.1415L7.26732 3.04984C7.40065 2.25817 7.50065 1.6665 8.90898 1.6665H11.0923C12.5007 1.6665 12.609 2.2915 12.734 3.05817L12.9173 4.1415" stroke="#ACACAC" stroke-width="1.25" stroke-linecap="round" stroke-linejoin="round"/>
<path d="M15.7087 7.6167L15.167 16.0084C15.0753 17.3167 15.0003 18.3334 12.6753 18.3334H7.32533C5.00033 18.3334 4.92533 17.3167 4.83366 16.0084L4.29199 7.6167" stroke="#ACACAC" stroke-width="1.25" stroke-linecap="round" stroke-linejoin="round"/>
<path d="M8.6084 13.75H11.3834" stroke="#ACACAC" stroke-width="1.25" stroke-linecap="round" stroke-linejoin="round"/>
<path d="M7.91602 10.4165H12.0827" stroke="#ACACAC" stroke-width="1.25" stroke-linecap="round" stroke-linejoin="round"/>
</svg>
