<svg width="208" height="213" viewBox="0 0 208 213" fill="none" xmlns="http://www.w3.org/2000/svg">
<g clip-path="url(#clip0_2_2082)">
<path d="M84.3681 69.1508L82.515 69.0695C82.6254 66.5417 83.7353 44.2555 88.6133 40.1901C88.9231 39.9133 89.2885 39.7059 89.6848 39.5817C90.0812 39.4576 90.4995 39.4196 90.9117 39.4703C93.8158 39.8748 96.9869 44.4828 100.607 53.5579C103.184 60.0192 105.042 66.4617 105.06 66.5261L103.278 67.0385C103.259 66.9749 101.423 60.6103 98.8795 54.2342C94.3874 42.9764 91.6323 41.4448 90.6563 41.309C90.4996 41.292 90.3412 41.3108 90.1929 41.3641C90.0446 41.4174 89.9104 41.5037 89.8003 41.6165C86.2009 44.616 84.6587 62.5091 84.3681 69.1508Z" fill="black"/>
<path d="M67.9962 57.1257L66.1411 103.676L127.349 97.0784L119.783 52.1354L67.9962 57.1257Z" fill="#FFBA49"/>
<path d="M119.783 52.1354L115.28 52.5691L121.272 91.9796L66.3555 98.3028L66.1411 103.676L127.349 97.0784L119.783 52.1354Z" fill="#FFA113"/>
<path d="M152.85 132.18L150.304 131.898C150.326 131.697 152.44 111.784 145.585 104.337C144.779 103.431 143.779 102.72 142.66 102.256C141.54 101.792 140.33 101.587 139.121 101.658C124.189 102.083 117.168 127.725 117.099 127.984L114.625 127.322C116.004 122.533 117.919 117.916 120.335 113.558C125.537 104.297 132.008 99.2959 139.048 99.0958C140.624 99.015 142.198 99.2879 143.656 99.8946C145.113 100.501 146.416 101.426 147.47 102.602C155.113 110.908 152.946 131.316 152.85 132.18Z" fill="#FFBA49"/>
<path d="M107.428 113.918L161.458 120.33L160.62 206.064L88.4967 197.468L107.428 113.918Z" fill="#DB3022"/>
<path d="M161.458 120.33L156.107 119.694L153.501 199.022L89.5126 192.985L88.4967 197.468L160.62 206.064L161.458 120.33Z" fill="#D10505"/>
<path d="M174.999 147.577C177.46 148.092 179.804 146.124 180.235 143.176C180.694 143.96 181.153 144.745 181.612 145.531C181.181 148.478 178.835 150.447 176.378 149.931C175.919 149.145 175.459 148.361 174.999 147.577Z" fill="#FFBA49"/>
<path d="M102.332 210.63C104.793 211.146 107.137 209.177 107.568 206.23C108.027 207.014 108.486 207.799 108.945 208.584C108.515 211.531 106.169 213.501 103.711 212.985C103.252 212.199 102.792 211.414 102.332 210.63Z" fill="#9B9B9B"/>
<path d="M180.494 98.236C181.526 100.96 184.205 102.17 186.481 100.934C186.199 101.832 185.917 102.729 185.634 103.626C183.358 104.86 180.679 103.651 179.648 100.926C179.932 100.03 180.214 99.1337 180.494 98.236Z" fill="#FF5C00"/>
<path d="M164.571 78.8868C164.987 75.9358 163.327 73.1416 160.864 72.6445C161.515 72.0884 162.167 71.5325 162.82 70.9767C165.282 71.4738 166.942 74.2692 166.528 77.219C165.876 77.7752 165.224 78.3312 164.571 78.8868Z" fill="#021193"/>
<path d="M16.7077 66.9773C17.123 64.0263 15.4636 61.2319 13 60.7348C13.6515 60.1787 14.3035 59.6228 14.9563 59.0671C17.418 59.5641 19.0783 62.3595 18.664 65.3095C18.0125 65.8655 17.3604 66.4215 16.7077 66.9773Z" fill="#FF5C00"/>
<path d="M67.0943 171.542C67.5097 168.59 65.8503 165.796 63.3867 165.299C64.0382 164.743 64.6902 164.187 65.3429 163.631C67.8046 164.128 69.4649 166.924 69.0506 169.874C68.3992 170.43 67.7471 170.986 67.0943 171.542Z" fill="#FF5C00"/>
<path d="M196.332 60.9562C198.776 61.5731 201.173 59.6998 201.688 56.7703C202.126 57.5729 202.563 58.3761 203 59.18C202.486 62.1065 200.087 63.9811 197.644 63.3659C197.206 62.5633 196.769 61.7601 196.332 60.9562Z" fill="#FFBA49"/>
<path d="M0.820788 97.2083C-0.0553493 94.4055 -2.66065 92.9842 -5 94.0351C-4.66908 93.1637 -4.33768 92.2912 -4.00579 91.4175C-1.66838 90.3678 0.938378 91.7879 1.815 94.5896C1.4841 95.4621 1.15269 96.335 0.820788 97.2083Z" fill="#FFBA49"/>
<path d="M61.5341 131.347C61.7067 134.331 63.8668 136.583 66.3578 136.375C65.8325 137.1 65.3062 137.821 64.7819 138.546C62.2899 138.752 60.1307 136.499 59.9581 133.514C60.4835 132.793 61.0088 132.07 61.5341 131.347Z" fill="#DB3022"/>
<path d="M43.9286 77.1203C46.4026 76.7091 48.1294 73.9721 47.7851 71.0081C48.4242 71.5868 49.0624 72.1649 49.6997 72.7423C50.0429 75.7075 48.3171 78.4427 45.8431 78.8557C45.2058 78.2768 44.5677 77.6983 43.9286 77.1203Z" fill="#021193"/>
<path d="M144.812 40.7727C141.604 40.879 143.91 46.5317 140.701 46.6402C140.089 46.0239 139.476 45.4075 138.862 44.7912C142.071 44.6844 139.765 39.0316 142.973 38.9232C143.587 39.5396 144.199 40.1561 144.812 40.7727Z" fill="#FF5C00"/>
<path d="M150.642 189.345C147.519 188.459 148.531 194.632 145.407 193.748C144.947 192.962 144.488 192.177 144.029 191.392C147.152 192.279 146.139 186.105 149.264 186.991C149.723 187.776 150.182 188.561 150.642 189.345Z" fill="#FFBA49"/>
<path d="M57.7805 197.382C55.5749 200.177 60.5418 202.224 58.3362 205.016C57.5397 205.098 56.7422 205.184 55.9457 205.264C58.1513 202.472 53.1843 200.427 55.39 197.632C56.1875 197.55 56.9843 197.467 57.7805 197.382Z" fill="#021193"/>
<path d="M129.225 4.42183C126.085 5.22105 129.202 10.2859 126.063 11.0834C125.369 10.6085 124.671 10.1354 123.977 9.65932C127.116 8.86229 123.998 3.79925 127.138 3C127.834 3.47604 128.53 3.94998 129.225 4.42183Z" fill="#DB3022"/>
<path d="M28.4439 21.0709C29.9886 24.4428 33.1371 19.4065 34.6795 22.7774C34.5003 23.7106 34.3234 24.6474 34.1433 25.5812C32.601 22.2093 29.4542 27.2473 27.9095 23.8753C28.0892 22.9392 28.2673 22.0044 28.4439 21.0709Z" fill="#9B9B9B"/>
<path d="M1.81506 153.65C2.22939 153.575 2.60424 153.357 2.87417 153.034C3.1441 152.71 3.29197 152.302 3.29197 151.881C3.29197 151.459 3.1441 151.051 2.87417 150.728C2.60424 150.404 2.22939 150.186 1.81506 150.111" fill="black"/>
<path d="M169.448 16.9329C168.098 16.9329 167 15.6172 167 14C167 12.3827 168.098 11.0671 169.448 11.0671C170.798 11.0671 171.896 12.3828 171.896 14C171.896 15.6173 170.798 16.9329 169.448 16.9329ZM169.448 12.2305C169.019 12.2729 168.624 12.4821 168.348 12.813C168.072 13.144 167.936 13.5702 167.971 14C167.932 14.2164 167.941 14.4387 167.997 14.6514C168.053 14.864 168.155 15.0616 168.296 15.2304C168.437 15.3992 168.613 15.5349 168.812 15.6281C169.011 15.7213 169.228 15.7695 169.448 15.7695C169.668 15.7695 169.885 15.7213 170.084 15.6281C170.283 15.5349 170.459 15.3992 170.6 15.2304C170.741 15.0616 170.843 14.864 170.899 14.6514C170.955 14.4387 170.964 14.2164 170.925 14C170.959 13.5702 170.824 13.144 170.548 12.813C170.272 12.4821 169.877 12.2729 169.448 12.2305Z" fill="black"/>
<path d="M26.9474 128.05C25.5976 128.05 24.4995 126.735 24.4995 125.117C24.4995 123.5 25.5976 122.185 26.9474 122.185C28.2972 122.185 29.3953 123.5 29.3953 125.117C29.3953 126.735 28.2972 128.05 26.9474 128.05ZM26.9474 123.348C26.5331 123.423 26.1582 123.641 25.8883 123.965C25.6184 124.288 25.4705 124.696 25.4705 125.117C25.4705 125.539 25.6184 125.947 25.8883 126.27C26.1582 126.594 26.5331 126.812 26.9474 126.887C27.3617 126.812 27.7366 126.594 28.0065 126.27C28.2764 125.947 28.4243 125.539 28.4243 125.117C28.4243 124.696 28.2764 124.288 28.0065 123.965C27.7366 123.641 27.3617 123.423 26.9474 123.348Z" fill="black"/>
<path d="M211.821 157.204C210.945 154.401 208.339 152.98 206 154.031C206.331 153.159 206.662 152.287 206.994 151.413C209.332 150.363 211.938 151.783 212.815 154.585C212.484 155.458 212.153 156.331 211.821 157.204Z" fill="black"/>
</g>
<defs>
<clipPath id="clip0_2_2082">
<rect width="208" height="213" fill="white"/>
</clipPath>
</defs>
</svg>
